<mxfile host="app.diagrams.net" agent="Mozilla/5.0 (Macintosh; Intel Mac OS X 10_15_7) AppleWebKit/605.1.15 (KHTML, like Gecko) Version/17.6 Safari/605.1.15" version="26.1.1">
  <diagram name="Side-1" id="quD2gT2-uqdGRXTMj5WH">
    <mxGraphModel dx="1368" dy="848" grid="1" gridSize="1" guides="1" tooltips="1" connect="1" arrows="1" fold="1" page="1" pageScale="1" pageWidth="827" pageHeight="1169" math="0" shadow="0">
      <root>
        <mxCell id="0" />
        <mxCell id="1" parent="0" />
        <mxCell id="91TdQFkNQZDdjxF0uiYy-6" value="Switch Core" style="swimlane;" vertex="1" parent="1">
          <mxGeometry x="178" y="76" width="760" height="600" as="geometry" />
        </mxCell>
        <mxCell id="91TdQFkNQZDdjxF0uiYy-15" value="MAC LEARNING" style="rounded=0;whiteSpace=wrap;html=1;" vertex="1" parent="91TdQFkNQZDdjxF0uiYy-6">
          <mxGeometry x="130" y="457" width="120" height="60" as="geometry" />
        </mxCell>
        <mxCell id="91TdQFkNQZDdjxF0uiYy-16" value="FCS CHECK" style="rounded=0;whiteSpace=wrap;html=1;" vertex="1" parent="91TdQFkNQZDdjxF0uiYy-6">
          <mxGeometry x="130" y="370" width="120" height="70" as="geometry" />
        </mxCell>
        <mxCell id="91TdQFkNQZDdjxF0uiYy-32" value="" style="group" vertex="1" connectable="0" parent="91TdQFkNQZDdjxF0uiYy-6">
          <mxGeometry x="240" y="157" width="101" height="90" as="geometry" />
        </mxCell>
        <mxCell id="91TdQFkNQZDdjxF0uiYy-19" value="" style="endArrow=none;html=1;rounded=0;entryX=-0.001;entryY=0.301;entryDx=0;entryDy=0;entryPerimeter=0;" edge="1" parent="91TdQFkNQZDdjxF0uiYy-32">
          <mxGeometry width="50" height="50" relative="1" as="geometry">
            <mxPoint y="42" as="sourcePoint" />
            <mxPoint x="97.32727272727273" y="42" as="targetPoint" />
            <Array as="points" />
          </mxGeometry>
        </mxCell>
        <mxCell id="91TdQFkNQZDdjxF0uiYy-21" value="" style="endArrow=none;html=1;rounded=0;entryX=-0.001;entryY=0.301;entryDx=0;entryDy=0;entryPerimeter=0;" edge="1" parent="91TdQFkNQZDdjxF0uiYy-32">
          <mxGeometry width="50" height="50" relative="1" as="geometry">
            <mxPoint y="62" as="sourcePoint" />
            <mxPoint x="97.32727272727273" y="62" as="targetPoint" />
            <Array as="points" />
          </mxGeometry>
        </mxCell>
        <mxCell id="91TdQFkNQZDdjxF0uiYy-23" value="" style="endArrow=none;html=1;rounded=0;entryX=-0.001;entryY=0.301;entryDx=0;entryDy=0;entryPerimeter=0;" edge="1" parent="91TdQFkNQZDdjxF0uiYy-32">
          <mxGeometry width="50" height="50" relative="1" as="geometry">
            <mxPoint y="82" as="sourcePoint" />
            <mxPoint x="97.32727272727273" y="82" as="targetPoint" />
            <Array as="points" />
          </mxGeometry>
        </mxCell>
        <mxCell id="91TdQFkNQZDdjxF0uiYy-30" value="" style="endArrow=none;html=1;rounded=0;entryX=-0.001;entryY=0.301;entryDx=0;entryDy=0;entryPerimeter=0;" edge="1" parent="91TdQFkNQZDdjxF0uiYy-32">
          <mxGeometry width="50" height="50" relative="1" as="geometry">
            <mxPoint y="22" as="sourcePoint" />
            <mxPoint x="97.32727272727273" y="22" as="targetPoint" />
            <Array as="points" />
          </mxGeometry>
        </mxCell>
        <mxCell id="91TdQFkNQZDdjxF0uiYy-33" value="" style="group" vertex="1" connectable="0" parent="91TdQFkNQZDdjxF0uiYy-6">
          <mxGeometry x="527" y="158" width="115" height="156" as="geometry" />
        </mxCell>
        <mxCell id="91TdQFkNQZDdjxF0uiYy-34" value="" style="endArrow=none;html=1;rounded=0;entryX=-0.001;entryY=0.301;entryDx=0;entryDy=0;entryPerimeter=0;" edge="1" parent="91TdQFkNQZDdjxF0uiYy-33">
          <mxGeometry width="50" height="50" relative="1" as="geometry">
            <mxPoint y="42" as="sourcePoint" />
            <mxPoint x="53" y="42" as="targetPoint" />
            <Array as="points" />
          </mxGeometry>
        </mxCell>
        <mxCell id="91TdQFkNQZDdjxF0uiYy-35" value="TX2" style="text;html=1;align=center;verticalAlign=middle;resizable=0;points=[];autosize=1;strokeColor=none;fillColor=none;" vertex="1" parent="91TdQFkNQZDdjxF0uiYy-33">
          <mxGeometry x="5" y="20" width="50" height="30" as="geometry" />
        </mxCell>
        <mxCell id="91TdQFkNQZDdjxF0uiYy-36" value="" style="endArrow=none;html=1;rounded=0;entryX=-0.001;entryY=0.301;entryDx=0;entryDy=0;entryPerimeter=0;" edge="1" parent="91TdQFkNQZDdjxF0uiYy-33">
          <mxGeometry width="50" height="50" relative="1" as="geometry">
            <mxPoint y="62" as="sourcePoint" />
            <mxPoint x="53" y="62" as="targetPoint" />
            <Array as="points" />
          </mxGeometry>
        </mxCell>
        <mxCell id="91TdQFkNQZDdjxF0uiYy-37" value="TX3" style="text;html=1;align=center;verticalAlign=middle;resizable=0;points=[];autosize=1;strokeColor=none;fillColor=none;" vertex="1" parent="91TdQFkNQZDdjxF0uiYy-33">
          <mxGeometry x="5" y="40" width="50" height="30" as="geometry" />
        </mxCell>
        <mxCell id="91TdQFkNQZDdjxF0uiYy-38" value="" style="endArrow=none;html=1;rounded=0;entryX=-0.001;entryY=0.301;entryDx=0;entryDy=0;entryPerimeter=0;" edge="1" parent="91TdQFkNQZDdjxF0uiYy-33">
          <mxGeometry width="50" height="50" relative="1" as="geometry">
            <mxPoint y="82" as="sourcePoint" />
            <mxPoint x="53" y="82" as="targetPoint" />
            <Array as="points" />
          </mxGeometry>
        </mxCell>
        <mxCell id="91TdQFkNQZDdjxF0uiYy-39" value="TX4" style="text;html=1;align=center;verticalAlign=middle;resizable=0;points=[];autosize=1;strokeColor=none;fillColor=none;" vertex="1" parent="91TdQFkNQZDdjxF0uiYy-33">
          <mxGeometry x="5" y="60" width="50" height="30" as="geometry" />
        </mxCell>
        <mxCell id="91TdQFkNQZDdjxF0uiYy-40" value="" style="endArrow=none;html=1;rounded=0;entryX=-0.001;entryY=0.301;entryDx=0;entryDy=0;entryPerimeter=0;" edge="1" parent="91TdQFkNQZDdjxF0uiYy-33">
          <mxGeometry width="50" height="50" relative="1" as="geometry">
            <mxPoint y="22" as="sourcePoint" />
            <mxPoint x="53" y="22" as="targetPoint" />
            <Array as="points" />
          </mxGeometry>
        </mxCell>
        <mxCell id="91TdQFkNQZDdjxF0uiYy-41" value="TX1" style="text;html=1;align=center;verticalAlign=middle;resizable=0;points=[];autosize=1;strokeColor=none;fillColor=none;" vertex="1" parent="91TdQFkNQZDdjxF0uiYy-33">
          <mxGeometry x="5" width="50" height="30" as="geometry" />
        </mxCell>
        <mxCell id="91TdQFkNQZDdjxF0uiYy-42" value="" style="endArrow=none;html=1;rounded=0;entryX=-0.001;entryY=0.301;entryDx=0;entryDy=0;entryPerimeter=0;" edge="1" parent="91TdQFkNQZDdjxF0uiYy-6">
          <mxGeometry width="50" height="50" relative="1" as="geometry">
            <mxPoint x="374" y="143" as="sourcePoint" />
            <mxPoint x="427" y="143" as="targetPoint" />
            <Array as="points" />
          </mxGeometry>
        </mxCell>
        <mxCell id="91TdQFkNQZDdjxF0uiYy-43" value="clk" style="text;html=1;align=center;verticalAlign=middle;resizable=0;points=[];autosize=1;strokeColor=none;fillColor=none;" vertex="1" parent="91TdQFkNQZDdjxF0uiYy-6">
          <mxGeometry x="381.5" y="121" width="40" height="30" as="geometry" />
        </mxCell>
        <mxCell id="91TdQFkNQZDdjxF0uiYy-46" value="" style="endArrow=none;html=1;rounded=0;entryX=-0.001;entryY=0.301;entryDx=0;entryDy=0;entryPerimeter=0;" edge="1" parent="91TdQFkNQZDdjxF0uiYy-6">
          <mxGeometry width="50" height="50" relative="1" as="geometry">
            <mxPoint x="374" y="123" as="sourcePoint" />
            <mxPoint x="427" y="123" as="targetPoint" />
            <Array as="points" />
          </mxGeometry>
        </mxCell>
        <mxCell id="91TdQFkNQZDdjxF0uiYy-47" value="rst" style="text;html=1;align=center;verticalAlign=middle;resizable=0;points=[];autosize=1;strokeColor=none;fillColor=none;" vertex="1" parent="91TdQFkNQZDdjxF0uiYy-6">
          <mxGeometry x="381.5" y="101" width="40" height="30" as="geometry" />
        </mxCell>
        <mxCell id="91TdQFkNQZDdjxF0uiYy-48" value="AUTHORIZER" style="rounded=0;whiteSpace=wrap;html=1;" vertex="1" parent="91TdQFkNQZDdjxF0uiYy-6">
          <mxGeometry x="140" y="155" width="100" height="100" as="geometry" />
        </mxCell>
        <mxCell id="91TdQFkNQZDdjxF0uiYy-83" value="" style="endArrow=none;html=1;rounded=0;entryX=0.5;entryY=1;entryDx=0;entryDy=0;" edge="1" parent="91TdQFkNQZDdjxF0uiYy-6" target="91TdQFkNQZDdjxF0uiYy-48">
          <mxGeometry width="50" height="50" relative="1" as="geometry">
            <mxPoint x="190" y="370" as="sourcePoint" />
            <mxPoint x="240" y="320" as="targetPoint" />
          </mxGeometry>
        </mxCell>
        <mxCell id="91TdQFkNQZDdjxF0uiYy-84" value="" style="group" vertex="1" connectable="0" parent="91TdQFkNQZDdjxF0uiYy-6">
          <mxGeometry x="-19" y="160" width="165" height="90" as="geometry" />
        </mxCell>
        <mxCell id="91TdQFkNQZDdjxF0uiYy-85" value="" style="endArrow=none;html=1;rounded=0;entryX=-0.001;entryY=0.301;entryDx=0;entryDy=0;entryPerimeter=0;" edge="1" parent="91TdQFkNQZDdjxF0uiYy-84">
          <mxGeometry width="50" height="50" relative="1" as="geometry">
            <mxPoint y="42" as="sourcePoint" />
            <mxPoint x="159.00000000000003" y="42" as="targetPoint" />
            <Array as="points" />
          </mxGeometry>
        </mxCell>
        <mxCell id="91TdQFkNQZDdjxF0uiYy-87" value="" style="endArrow=none;html=1;rounded=0;entryX=-0.001;entryY=0.301;entryDx=0;entryDy=0;entryPerimeter=0;" edge="1" parent="91TdQFkNQZDdjxF0uiYy-84" source="91TdQFkNQZDdjxF0uiYy-96">
          <mxGeometry width="50" height="50" relative="1" as="geometry">
            <mxPoint y="62" as="sourcePoint" />
            <mxPoint x="159.00000000000003" y="62" as="targetPoint" />
            <Array as="points" />
          </mxGeometry>
        </mxCell>
        <mxCell id="91TdQFkNQZDdjxF0uiYy-89" value="" style="endArrow=none;html=1;rounded=0;entryX=-0.001;entryY=0.301;entryDx=0;entryDy=0;entryPerimeter=0;" edge="1" parent="91TdQFkNQZDdjxF0uiYy-84">
          <mxGeometry width="50" height="50" relative="1" as="geometry">
            <mxPoint x="103" y="82" as="sourcePoint" />
            <mxPoint x="159.00000000000003" y="82" as="targetPoint" />
            <Array as="points" />
          </mxGeometry>
        </mxCell>
        <mxCell id="91TdQFkNQZDdjxF0uiYy-91" value="" style="endArrow=none;html=1;rounded=0;entryX=-0.001;entryY=0.301;entryDx=0;entryDy=0;entryPerimeter=0;" edge="1" parent="91TdQFkNQZDdjxF0uiYy-84" source="91TdQFkNQZDdjxF0uiYy-104">
          <mxGeometry width="50" height="50" relative="1" as="geometry">
            <mxPoint y="22" as="sourcePoint" />
            <mxPoint x="159.00000000000003" y="22" as="targetPoint" />
            <Array as="points" />
          </mxGeometry>
        </mxCell>
        <mxCell id="91TdQFkNQZDdjxF0uiYy-95" value="" style="endArrow=none;html=1;rounded=0;entryX=0.474;entryY=0.515;entryDx=0;entryDy=0;entryPerimeter=0;" edge="1" parent="91TdQFkNQZDdjxF0uiYy-84">
          <mxGeometry width="50" height="50" relative="1" as="geometry">
            <mxPoint y="82" as="sourcePoint" />
            <mxPoint x="103.94800000000004" y="82.03000000000003" as="targetPoint" />
            <Array as="points" />
          </mxGeometry>
        </mxCell>
        <mxCell id="91TdQFkNQZDdjxF0uiYy-96" value="" style="ellipse;whiteSpace=wrap;html=1;aspect=fixed;labelBorderColor=default;labelBackgroundColor=#000000;" vertex="1" parent="91TdQFkNQZDdjxF0uiYy-84">
          <mxGeometry x="103" y="61" width="2" height="2" as="geometry" />
        </mxCell>
        <mxCell id="91TdQFkNQZDdjxF0uiYy-104" value="" style="ellipse;whiteSpace=wrap;html=1;aspect=fixed;labelBorderColor=default;labelBackgroundColor=#000000;" vertex="1" parent="91TdQFkNQZDdjxF0uiYy-84">
          <mxGeometry x="103" y="21" width="2" height="2" as="geometry" />
        </mxCell>
        <mxCell id="91TdQFkNQZDdjxF0uiYy-108" value="" style="endArrow=none;html=1;rounded=0;entryX=-0.001;entryY=0.301;entryDx=0;entryDy=0;entryPerimeter=0;" edge="1" parent="91TdQFkNQZDdjxF0uiYy-84">
          <mxGeometry width="50" height="50" relative="1" as="geometry">
            <mxPoint y="21.93" as="sourcePoint" />
            <mxPoint x="159.00000000000003" y="21.93" as="targetPoint" />
            <Array as="points" />
          </mxGeometry>
        </mxCell>
        <mxCell id="91TdQFkNQZDdjxF0uiYy-111" value="" style="endArrow=none;html=1;rounded=0;entryX=-0.001;entryY=0.301;entryDx=0;entryDy=0;entryPerimeter=0;" edge="1" parent="91TdQFkNQZDdjxF0uiYy-84" source="91TdQFkNQZDdjxF0uiYy-102">
          <mxGeometry width="50" height="50" relative="1" as="geometry">
            <mxPoint y="42" as="sourcePoint" />
            <mxPoint x="159.00000000000003" y="42" as="targetPoint" />
            <Array as="points" />
          </mxGeometry>
        </mxCell>
        <mxCell id="91TdQFkNQZDdjxF0uiYy-114" value="" style="endArrow=none;html=1;rounded=0;entryX=-0.001;entryY=0.301;entryDx=0;entryDy=0;entryPerimeter=0;" edge="1" parent="91TdQFkNQZDdjxF0uiYy-84">
          <mxGeometry width="50" height="50" relative="1" as="geometry">
            <mxPoint y="61.93000000000001" as="sourcePoint" />
            <mxPoint x="159.00000000000003" y="61.93000000000001" as="targetPoint" />
            <Array as="points" />
          </mxGeometry>
        </mxCell>
        <mxCell id="91TdQFkNQZDdjxF0uiYy-138" value="" style="ellipse;whiteSpace=wrap;html=1;aspect=fixed;labelBorderColor=default;labelBackgroundColor=#000000;" vertex="1" parent="91TdQFkNQZDdjxF0uiYy-84">
          <mxGeometry x="103" y="81" width="2" height="2" as="geometry" />
        </mxCell>
        <mxCell id="91TdQFkNQZDdjxF0uiYy-102" value="" style="ellipse;whiteSpace=wrap;html=1;aspect=fixed;labelBorderColor=default;labelBackgroundColor=#000000;" vertex="1" parent="91TdQFkNQZDdjxF0uiYy-84">
          <mxGeometry x="103" y="41" width="2" height="2" as="geometry" />
        </mxCell>
        <mxCell id="91TdQFkNQZDdjxF0uiYy-117" style="edgeStyle=orthogonalEdgeStyle;rounded=0;orthogonalLoop=1;jettySize=auto;html=1;exitX=1;exitY=0.5;exitDx=0;exitDy=0;entryX=0.512;entryY=1.004;entryDx=0;entryDy=0;entryPerimeter=0;" edge="1" parent="91TdQFkNQZDdjxF0uiYy-6" source="91TdQFkNQZDdjxF0uiYy-15" target="91TdQFkNQZDdjxF0uiYy-13">
          <mxGeometry relative="1" as="geometry" />
        </mxCell>
        <mxCell id="91TdQFkNQZDdjxF0uiYy-118" value="IP BLOCKING" style="rounded=0;whiteSpace=wrap;html=1;" vertex="1" parent="91TdQFkNQZDdjxF0uiYy-6">
          <mxGeometry x="130" y="529" width="120" height="38" as="geometry" />
        </mxCell>
        <mxCell id="91TdQFkNQZDdjxF0uiYy-121" value="" style="group" vertex="1" connectable="0" parent="91TdQFkNQZDdjxF0uiYy-6">
          <mxGeometry x="331" y="163" width="43" height="94" as="geometry" />
        </mxCell>
        <mxCell id="91TdQFkNQZDdjxF0uiYy-119" value="FIFO" style="rounded=0;whiteSpace=wrap;html=1;" vertex="1" parent="91TdQFkNQZDdjxF0uiYy-121">
          <mxGeometry width="43" height="93.99999999999999" as="geometry" />
        </mxCell>
        <mxCell id="91TdQFkNQZDdjxF0uiYy-120" value="" style="triangle;whiteSpace=wrap;html=1;rotation=-90;" vertex="1" parent="91TdQFkNQZDdjxF0uiYy-121">
          <mxGeometry x="16.75" y="79.00142857142856" width="9.5" height="18.799999999999997" as="geometry" />
        </mxCell>
        <mxCell id="91TdQFkNQZDdjxF0uiYy-125" value="" style="group" vertex="1" connectable="0" parent="91TdQFkNQZDdjxF0uiYy-6">
          <mxGeometry x="580" y="163" width="43" height="94" as="geometry" />
        </mxCell>
        <mxCell id="91TdQFkNQZDdjxF0uiYy-126" value="FIFO" style="rounded=0;whiteSpace=wrap;html=1;" vertex="1" parent="91TdQFkNQZDdjxF0uiYy-125">
          <mxGeometry width="43" height="93.99999999999999" as="geometry" />
        </mxCell>
        <mxCell id="91TdQFkNQZDdjxF0uiYy-127" value="" style="triangle;whiteSpace=wrap;html=1;rotation=-90;" vertex="1" parent="91TdQFkNQZDdjxF0uiYy-125">
          <mxGeometry x="16.75" y="79.00142857142856" width="9.5" height="18.799999999999997" as="geometry" />
        </mxCell>
        <mxCell id="91TdQFkNQZDdjxF0uiYy-14" value="" style="group" vertex="1" connectable="0" parent="91TdQFkNQZDdjxF0uiYy-6">
          <mxGeometry x="427" y="113" width="100" height="220" as="geometry" />
        </mxCell>
        <mxCell id="91TdQFkNQZDdjxF0uiYy-13" value="" style="verticalLabelPosition=bottom;verticalAlign=top;html=1;shape=mxgraph.basic.rect;fillColor2=none;strokeWidth=1;size=20;indent=5;" vertex="1" parent="91TdQFkNQZDdjxF0uiYy-14">
          <mxGeometry width="100" height="220.00000000000003" as="geometry" />
        </mxCell>
        <mxCell id="91TdQFkNQZDdjxF0uiYy-11" value="" style="shape=umlDestroy;whiteSpace=wrap;html=1;strokeWidth=3;targetShapes=umlLifeline;" vertex="1" parent="91TdQFkNQZDdjxF0uiYy-14">
          <mxGeometry x="25" y="27.500000000000004" width="50" height="165" as="geometry" />
        </mxCell>
        <mxCell id="91TdQFkNQZDdjxF0uiYy-44" value="" style="triangle;whiteSpace=wrap;html=1;" vertex="1" parent="91TdQFkNQZDdjxF0uiYy-14">
          <mxGeometry y="20" width="14" height="20" as="geometry" />
        </mxCell>
        <mxCell id="91TdQFkNQZDdjxF0uiYy-103" value="" style="endArrow=none;html=1;rounded=0;exitX=0;exitY=0.5;exitDx=0;exitDy=0;" edge="1" parent="1" source="91TdQFkNQZDdjxF0uiYy-15">
          <mxGeometry width="50" height="50" relative="1" as="geometry">
            <mxPoint x="174" y="480" as="sourcePoint" />
            <mxPoint x="263" y="258" as="targetPoint" />
            <Array as="points">
              <mxPoint x="262" y="563" />
              <mxPoint x="263" y="318" />
            </Array>
          </mxGeometry>
        </mxCell>
        <mxCell id="91TdQFkNQZDdjxF0uiYy-116" value="" style="endArrow=none;html=1;rounded=0;entryX=0;entryY=0.5;entryDx=0;entryDy=0;" edge="1" parent="1" target="91TdQFkNQZDdjxF0uiYy-16">
          <mxGeometry width="50" height="50" relative="1" as="geometry">
            <mxPoint x="159" y="481" as="sourcePoint" />
            <mxPoint x="219" y="452" as="targetPoint" />
          </mxGeometry>
        </mxCell>
        <mxCell id="91TdQFkNQZDdjxF0uiYy-128" value="" style="group" vertex="1" connectable="0" parent="1">
          <mxGeometry x="552" y="233" width="55" height="90" as="geometry" />
        </mxCell>
        <mxCell id="91TdQFkNQZDdjxF0uiYy-129" value="" style="endArrow=none;html=1;rounded=0;entryX=-0.001;entryY=0.301;entryDx=0;entryDy=0;entryPerimeter=0;" edge="1" parent="91TdQFkNQZDdjxF0uiYy-128">
          <mxGeometry width="50" height="50" relative="1" as="geometry">
            <mxPoint y="42" as="sourcePoint" />
            <mxPoint x="53" y="42" as="targetPoint" />
            <Array as="points" />
          </mxGeometry>
        </mxCell>
        <mxCell id="91TdQFkNQZDdjxF0uiYy-130" value="RX2" style="text;html=1;align=center;verticalAlign=middle;resizable=0;points=[];autosize=1;strokeColor=none;fillColor=none;" vertex="1" parent="91TdQFkNQZDdjxF0uiYy-128">
          <mxGeometry x="5" y="20" width="50" height="30" as="geometry" />
        </mxCell>
        <mxCell id="91TdQFkNQZDdjxF0uiYy-131" value="" style="endArrow=none;html=1;rounded=0;entryX=-0.001;entryY=0.301;entryDx=0;entryDy=0;entryPerimeter=0;" edge="1" parent="91TdQFkNQZDdjxF0uiYy-128">
          <mxGeometry width="50" height="50" relative="1" as="geometry">
            <mxPoint y="62" as="sourcePoint" />
            <mxPoint x="53" y="62" as="targetPoint" />
            <Array as="points" />
          </mxGeometry>
        </mxCell>
        <mxCell id="91TdQFkNQZDdjxF0uiYy-132" value="RX3" style="text;html=1;align=center;verticalAlign=middle;resizable=0;points=[];autosize=1;strokeColor=none;fillColor=none;" vertex="1" parent="91TdQFkNQZDdjxF0uiYy-128">
          <mxGeometry x="5" y="40" width="50" height="30" as="geometry" />
        </mxCell>
        <mxCell id="91TdQFkNQZDdjxF0uiYy-133" value="" style="endArrow=none;html=1;rounded=0;entryX=-0.001;entryY=0.301;entryDx=0;entryDy=0;entryPerimeter=0;" edge="1" parent="91TdQFkNQZDdjxF0uiYy-128">
          <mxGeometry width="50" height="50" relative="1" as="geometry">
            <mxPoint y="82" as="sourcePoint" />
            <mxPoint x="53" y="82" as="targetPoint" />
            <Array as="points" />
          </mxGeometry>
        </mxCell>
        <mxCell id="91TdQFkNQZDdjxF0uiYy-134" value="RX4" style="text;html=1;align=center;verticalAlign=middle;resizable=0;points=[];autosize=1;strokeColor=none;fillColor=none;" vertex="1" parent="91TdQFkNQZDdjxF0uiYy-128">
          <mxGeometry x="5" y="60" width="50" height="30" as="geometry" />
        </mxCell>
        <mxCell id="91TdQFkNQZDdjxF0uiYy-135" value="" style="endArrow=none;html=1;rounded=0;entryX=-0.001;entryY=0.301;entryDx=0;entryDy=0;entryPerimeter=0;" edge="1" parent="91TdQFkNQZDdjxF0uiYy-128">
          <mxGeometry width="50" height="50" relative="1" as="geometry">
            <mxPoint y="22" as="sourcePoint" />
            <mxPoint x="53" y="22" as="targetPoint" />
            <Array as="points" />
          </mxGeometry>
        </mxCell>
        <mxCell id="91TdQFkNQZDdjxF0uiYy-136" value="RX1" style="text;html=1;align=center;verticalAlign=middle;resizable=0;points=[];autosize=1;strokeColor=none;fillColor=none;" vertex="1" parent="91TdQFkNQZDdjxF0uiYy-128">
          <mxGeometry x="5" width="50" height="30" as="geometry" />
        </mxCell>
      </root>
    </mxGraphModel>
  </diagram>
</mxfile>
